<svg xmlns="http://www.w3.org/2000/svg" viewBox="0 0 32 32">
  <defs>
    <linearGradient id="grad" x1="0%" y1="0%" x2="100%" y2="100%">
      <stop offset="0%" style="stop-color:#f97316;stop-opacity:1" />
      <stop offset="100%" style="stop-color:#eab308;stop-opacity:1" />
    </linearGradient>
  </defs>
  <rect width="32" height="32" rx="6" fill="url(#grad)"/>
  <path d="M8 10c-.55 0-1 .45-1 1s.45 1 1 1 1-.45 1-1-.45-1-1-1zm12 0c-.55 0-1 .45-1 1s.45 1 1 1 1-.45 1-1-.45-1-1-1zM9.5 8h.9l.5 1h9.6c.4 0 .7-.2.9-.5l2-3.6c.2-.4 0-.9-.4-1.1-.4-.2-.9 0-1.1.4L20.2 7H11l-.5-1H8v1h1.5zm.5 2l1.5 5h8l2-5H10z" fill="white" transform="translate(4, 10) scale(1.2)"/>
</svg>